<svg width="25" height="24" viewBox="0 0 25 24" fill="none" xmlns="http://www.w3.org/2000/svg">
<path d="M2.9516 10.75C2.9516 13.4022 4.00517 15.9457 5.88053 17.8211C7.7559 19.6964 10.2994 20.75 12.9516 20.75C15.6038 20.75 18.1473 19.6964 20.0227 17.8211C21.898 15.9457 22.9516 13.4022 22.9516 10.75C22.9516 8.09784 21.898 5.5543 20.0227 3.67893C18.1473 1.80357 15.6038 0.75 12.9516 0.75C10.2994 0.75 7.7559 1.80357 5.88053 3.67893C4.00517 5.5543 2.9516 8.09784 2.9516 10.75Z" fill="#FFE500"/>
<path d="M12.9516 0.75C10.9738 0.75 9.04039 1.33649 7.3959 2.4353C5.75141 3.53412 4.46968 5.0959 3.71281 6.92317C2.95593 8.75043 2.7579 10.7611 3.14375 12.7009C3.5296 14.6407 4.48201 16.4225 5.88054 17.8211C7.27906 19.2196 9.06089 20.172 11.0007 20.5579C12.9405 20.9437 14.9512 20.7457 16.7784 19.9888C18.6057 19.2319 20.1675 17.9502 21.2663 16.3057C22.3651 14.6612 22.9516 12.7278 22.9516 10.75C22.9516 8.09784 21.898 5.5543 20.0227 3.67893C18.1473 1.80357 15.6038 0.75 12.9516 0.75ZM12.9516 19.25C11.1468 19.25 9.38262 18.7148 7.88203 17.7122C6.38143 16.7095 5.21185 15.2844 4.5212 13.617C3.83055 11.9496 3.64985 10.1149 4.00194 8.3448C4.35403 6.57472 5.2231 4.9488 6.49925 3.67265C7.77541 2.3965 9.40133 1.52742 11.1714 1.17533C12.9415 0.823244 14.7762 1.00395 16.4436 1.6946C18.111 2.38525 19.5361 3.55482 20.5388 5.05542C21.5414 6.55602 22.0766 8.32025 22.0766 10.125C22.0766 12.5451 21.1152 14.8661 19.404 16.5773C17.6927 18.2886 15.3717 19.25 12.9516 19.25Z" fill="#EBCB00"/>
<path d="M9.9516 2.75C9.9516 2.94891 10.2677 3.13968 10.8303 3.28033C11.3929 3.42098 12.1559 3.5 12.9516 3.5C13.7472 3.5 14.5103 3.42098 15.0729 3.28033C15.6355 3.13968 15.9516 2.94891 15.9516 2.75C15.9516 2.55109 15.6355 2.36032 15.0729 2.21967C14.5103 2.07902 13.7472 2 12.9516 2C12.1559 2 11.3929 2.07902 10.8303 2.21967C10.2677 2.36032 9.9516 2.55109 9.9516 2.75Z" fill="#FFF48C"/>
<path opacity="0.15" d="M4.9516 22.75C4.9516 22.9489 5.79445 23.1397 7.29474 23.2803C8.79504 23.421 10.8299 23.5 12.9516 23.5C15.0733 23.5 17.1082 23.421 18.6085 23.2803C20.1087 23.1397 20.9516 22.9489 20.9516 22.75C20.9516 22.5511 20.1087 22.3603 18.6085 22.2197C17.1082 22.079 15.0733 22 12.9516 22C10.8299 22 8.79504 22.079 7.29474 22.2197C5.79445 22.3603 4.9516 22.5511 4.9516 22.75Z" fill="#45413C"/>
<path d="M2.9516 10.75C2.9516 13.4022 4.00517 15.9457 5.88053 17.8211C7.7559 19.6964 10.2994 20.75 12.9516 20.75C15.6038 20.75 18.1473 19.6964 20.0227 17.8211C21.898 15.9457 22.9516 13.4022 22.9516 10.75C22.9516 8.09784 21.898 5.5543 20.0227 3.67893C18.1473 1.80357 15.6038 0.75 12.9516 0.75C10.2994 0.75 7.7559 1.80357 5.88053 3.67893C4.00517 5.5543 2.9516 8.09784 2.9516 10.75V10.75Z" stroke="#45413C" stroke-width="0.5" stroke-linecap="round" stroke-linejoin="round"/>
<path d="M20.2016 13.25C20.2016 13.665 19.6416 14 18.9516 14C18.2616 14 17.7016 13.665 17.7016 13.25C17.7016 12.835 18.2616 12.5 18.9516 12.5C19.6416 12.5 20.2016 12.835 20.2016 13.25Z" fill="#FFAA54"/>
<path d="M5.7016 13.25C5.7016 13.665 6.2616 14 6.9516 14C7.6416 14 8.2016 13.665 8.2016 13.25C8.2016 12.835 7.6416 12.5 6.9516 12.5C6.2616 12.5 5.7016 12.835 5.7016 13.25Z" fill="#FFAA54"/>
<path d="M12.9516 18.275C17.5516 18.275 18.1666 16.355 17.8966 14.775C17.8386 14.5389 17.7308 14.3179 17.5804 14.1268C17.4299 13.9358 17.2404 13.7792 17.0245 13.6674C16.8085 13.5556 16.5712 13.4914 16.3284 13.4789C16.0855 13.4664 15.8429 13.506 15.6166 13.595C14.7575 13.881 13.857 14.0229 12.9516 14.015C12.0462 14.0229 11.1457 13.881 10.2866 13.595C10.0603 13.506 9.81764 13.4664 9.57482 13.4789C9.332 13.4914 9.09465 13.5556 8.87872 13.6674C8.66278 13.7792 8.47324 13.9358 8.32282 14.1268C8.1724 14.3179 8.06458 14.5389 8.00659 14.775C7.73659 16.355 8.35159 18.275 12.9516 18.275Z" fill="white" stroke="#45413C" stroke-width="0.5" stroke-linecap="round" stroke-linejoin="round"/>
<path d="M17.9516 15.14C17.2207 15.4737 16.4464 15.7027 15.6516 15.82C14.7622 15.9632 13.8624 16.0318 12.9616 16.025C12.0608 16.0318 11.161 15.9632 10.2716 15.82C9.46993 15.7045 8.68877 15.4755 7.9516 15.14" stroke="#45413C" stroke-width="0.5" stroke-linecap="round" stroke-linejoin="round"/>
<path d="M10.5866 13.695L10.2616 15.82L9.94659 17.865" stroke="#45413C" stroke-width="0.5" stroke-linecap="round" stroke-linejoin="round"/>
<path d="M12.9516 18.275V14.025" stroke="#45413C" stroke-width="0.5" stroke-linecap="round" stroke-linejoin="round"/>
<path d="M15.3166 13.695L15.6416 15.82L15.9566 17.865" stroke="#45413C" stroke-width="0.5" stroke-linecap="round" stroke-linejoin="round"/>
<path d="M8.2016 10.25C8.2016 10.3489 8.17227 10.4456 8.11733 10.5278C8.06239 10.61 7.9843 10.6741 7.89294 10.7119C7.80158 10.7498 7.70104 10.7597 7.60405 10.7404C7.50706 10.7211 7.41797 10.6735 7.34805 10.6036C7.27812 10.5336 7.2305 10.4445 7.21121 10.3475C7.19191 10.2506 7.20182 10.15 7.23966 10.0587C7.2775 9.9673 7.34159 9.88921 7.42381 9.83426C7.50604 9.77932 7.60271 9.75 7.7016 9.75C7.83421 9.75 7.96138 9.80268 8.05515 9.89645C8.14892 9.99021 8.2016 10.1174 8.2016 10.25Z" fill="#45413C" stroke="#45413C" stroke-width="0.5" stroke-linecap="round" stroke-linejoin="round"/>
<path d="M17.7016 10.25C17.7016 10.3489 17.7309 10.4456 17.7859 10.5278C17.8408 10.61 17.9189 10.6741 18.0103 10.7119C18.1016 10.7498 18.2022 10.7597 18.2991 10.7404C18.3961 10.7211 18.4852 10.6735 18.5552 10.6036C18.6251 10.5336 18.6727 10.4445 18.692 10.3475C18.7113 10.2506 18.7014 10.15 18.6635 10.0587C18.6257 9.9673 18.5616 9.88921 18.4794 9.83426C18.3972 9.77932 18.3005 9.75 18.2016 9.75C18.069 9.75 17.9418 9.80268 17.848 9.89645C17.7543 9.99021 17.7016 10.1174 17.7016 10.25Z" fill="#45413C" stroke="#45413C" stroke-width="0.5" stroke-linecap="round" stroke-linejoin="round"/>
</svg>
