<svg width="25" height="24" viewBox="0 0 25 24" fill="none" xmlns="http://www.w3.org/2000/svg">
<path d="M22.5699 12.555C22.8493 11.8645 22.9182 11.1067 22.7678 10.3772C22.6174 9.64758 22.2546 8.9788 21.7249 8.45501C21.0574 7.80154 20.253 7.30457 19.3699 7.00001C17.9577 6.51682 16.5077 6.15222 15.0349 5.91001C13.5667 5.63492 12.0784 5.48107 10.5849 5.45001C9.6507 5.43374 8.72416 5.62144 7.86992 6.00001C7.19352 6.31187 6.62432 6.81662 6.2338 7.45088C5.84329 8.08513 5.64886 8.82063 5.67492 9.56501C5.6755 9.66315 5.69995 9.75967 5.74615 9.84626C5.79236 9.93284 5.85893 10.0069 5.94013 10.062C6.02133 10.1171 6.11472 10.1517 6.21225 10.1626C6.30977 10.1736 6.4085 10.1607 6.49992 10.125L8.61492 9.37001C8.77769 9.30113 8.9081 9.17283 8.97962 9.01121C9.05114 8.84959 9.0584 8.66679 8.99992 8.50001L8.81492 8.00001C8.78935 7.93026 8.78087 7.8554 8.79018 7.7817C8.79949 7.708 8.82632 7.6376 8.86842 7.5764C8.91053 7.5152 8.96669 7.46497 9.03219 7.42993C9.0977 7.3949 9.17064 7.37606 9.24492 7.37501C11.0693 7.33648 12.8935 7.46367 14.6949 7.75501C16.4883 8.09541 18.2471 8.59746 19.9499 9.25501C20.0194 9.2814 20.0816 9.32409 20.1312 9.37948C20.1809 9.43487 20.2165 9.50136 20.2351 9.57335C20.2537 9.64535 20.2548 9.72076 20.2382 9.79326C20.2216 9.86576 20.1879 9.93323 20.1399 9.99001L19.7899 10.41C19.7315 10.4798 19.6875 10.5605 19.6604 10.6473C19.6333 10.7342 19.6236 10.8256 19.632 10.9162C19.6404 11.0069 19.6666 11.0949 19.7091 11.1754C19.7517 11.2558 19.8097 11.3271 19.8799 11.385L21.6049 12.815C21.6797 12.8791 21.769 12.924 21.865 12.9457C21.9611 12.9675 22.061 12.9655 22.1561 12.9399C22.2512 12.9142 22.3386 12.8658 22.4107 12.7987C22.4828 12.7317 22.5375 12.648 22.5699 12.555Z" fill="#FF6242"/>
<path opacity="0.15" d="M7.01001 22.75C7.01001 22.9489 7.77385 23.1397 9.13349 23.2803C10.4931 23.421 12.3372 23.5 14.26 23.5C16.1828 23.5 18.0269 23.421 19.3865 23.2803C20.7462 23.1397 21.51 22.9489 21.51 22.75C21.51 22.5511 20.7462 22.3603 19.3865 22.2197C18.0269 22.079 16.1828 22 14.26 22C12.3372 22 10.4931 22.079 9.13349 22.2197C7.77385 22.3603 7.01001 22.5511 7.01001 22.75Z" fill="#45413C"/>
<path d="M7.18494 17.83H21.1849V20.865C21.1849 20.9883 21.1359 21.1066 21.0487 21.1938C20.9615 21.281 20.8433 21.33 20.7199 21.33H7.64994C7.52661 21.33 7.40834 21.281 7.32113 21.1938C7.23393 21.1066 7.18494 20.9883 7.18494 20.865V17.83Z" fill="#FF6242"/>
<path d="M7.18494 17.83H21.1849V20.865C21.1849 20.9883 21.1359 21.1066 21.0487 21.1938C20.9615 21.281 20.8433 21.33 20.7199 21.33H7.64994C7.52661 21.33 7.40834 21.281 7.32113 21.1938C7.23393 21.1066 7.18494 20.9883 7.18494 20.865V17.83V17.83Z" stroke="#45413C" stroke-width="0.5" stroke-linecap="round" stroke-linejoin="round"/>
<path d="M21.1849 17.83H7.18494L9.18494 11.62C9.21565 11.5264 9.2753 11.445 9.35528 11.3875C9.43525 11.33 9.53143 11.2993 9.62994 11.3H18.7449C18.8434 11.2993 18.9396 11.33 19.0196 11.3875C19.0996 11.445 19.1592 11.5264 19.1899 11.62L21.1849 17.83Z" fill="#FF6242"/>
<path d="M8.86493 13.165H19.4999C19.5645 13.1644 19.6287 13.1745 19.6899 13.195L19.1899 11.62C19.1592 11.5264 19.0996 11.445 19.0196 11.3875C18.9396 11.33 18.8434 11.2993 18.7449 11.3H9.62493C9.52642 11.2993 9.43025 11.33 9.35027 11.3875C9.27029 11.445 9.21065 11.5264 9.17993 11.62L8.67993 13.195C8.73967 13.1754 8.80208 13.1653 8.86493 13.165Z" fill="#FF866E"/>
<path d="M21.1849 17.83H7.18494L9.18494 11.62C9.21565 11.5264 9.2753 11.445 9.35528 11.3875C9.43525 11.33 9.53143 11.2993 9.62994 11.3H18.7449C18.8434 11.2993 18.9396 11.33 19.0196 11.3875C19.0996 11.445 19.1592 11.5264 19.1899 11.62L21.1849 17.83Z" stroke="#45413C" stroke-width="0.5" stroke-linecap="round" stroke-linejoin="round"/>
<path d="M9.98499 10.13H12.085V11.295H9.98499V10.13Z" fill="#E04122" stroke="#45413C" stroke-width="0.5" stroke-linecap="round" stroke-linejoin="round"/>
<path d="M16.2849 10.13H18.3849V11.295H16.2849V10.13Z" fill="#E04122" stroke="#45413C" stroke-width="0.5" stroke-linecap="round" stroke-linejoin="round"/>
<path d="M7.71993 6.89001C8.57335 6.49976 9.50154 6.30014 10.4399 6.30501C11.9334 6.33607 13.4217 6.48992 14.8899 6.76501C16.3626 7.0079 17.8125 7.37248 19.2249 7.85501C20.1093 8.16663 20.9136 8.67038 21.5799 9.33001C21.9562 9.70167 22.25 10.1484 22.4421 10.6412C22.6343 11.134 22.7204 11.6617 22.6949 12.19C22.8847 11.5378 22.8948 10.8464 22.724 10.189C22.5533 9.53155 22.2081 8.93244 21.7249 8.45501C21.0574 7.80154 20.253 7.30457 19.3699 7.00001C17.9577 6.51682 16.5077 6.15222 15.0349 5.91001C13.5667 5.63492 12.0784 5.48107 10.5849 5.45001C9.65071 5.43374 8.72417 5.62144 7.86993 6.00001C7.24244 6.28809 6.70625 6.74317 6.32 7.31549C5.93376 7.8878 5.71233 8.55531 5.67993 9.24501C5.83219 8.72962 6.09302 8.25279 6.4449 7.84659C6.79677 7.44038 7.23152 7.11421 7.71993 6.89001Z" fill="#FF866E"/>
<path d="M22.5699 12.555C22.8493 11.8645 22.9182 11.1067 22.7678 10.3772C22.6174 9.64758 22.2546 8.9788 21.7249 8.45501C21.0574 7.80154 20.253 7.30457 19.3699 7.00001C17.9577 6.51682 16.5077 6.15222 15.0349 5.91001C13.5667 5.63492 12.0784 5.48107 10.5849 5.45001C9.6507 5.43374 8.72416 5.62144 7.86992 6.00001C7.19352 6.31187 6.62432 6.81662 6.2338 7.45088C5.84329 8.08513 5.64886 8.82063 5.67492 9.56501C5.6755 9.66315 5.69995 9.75967 5.74615 9.84626C5.79236 9.93284 5.85893 10.0069 5.94013 10.062C6.02133 10.1171 6.11472 10.1517 6.21225 10.1626C6.30977 10.1736 6.4085 10.1607 6.49992 10.125L8.61492 9.37001C8.77769 9.30113 8.9081 9.17283 8.97962 9.01121C9.05114 8.84959 9.0584 8.66679 8.99992 8.50001L8.81492 8.00001C8.78935 7.93026 8.78087 7.8554 8.79018 7.7817C8.79949 7.708 8.82632 7.6376 8.86842 7.5764C8.91053 7.5152 8.96669 7.46497 9.03219 7.42993C9.0977 7.3949 9.17064 7.37606 9.24492 7.37501C11.0693 7.33648 12.8935 7.46367 14.6949 7.75501C16.4883 8.09541 18.2471 8.59746 19.9499 9.25501C20.0194 9.2814 20.0816 9.32409 20.1312 9.37948C20.1809 9.43487 20.2165 9.50136 20.2351 9.57335C20.2537 9.64535 20.2548 9.72076 20.2382 9.79326C20.2216 9.86576 20.1879 9.93323 20.1399 9.99001L19.7899 10.41C19.7315 10.4798 19.6875 10.5605 19.6604 10.6473C19.6333 10.7342 19.6236 10.8256 19.632 10.9162C19.6404 11.0069 19.6666 11.0949 19.7091 11.1754C19.7517 11.2558 19.8097 11.3271 19.8799 11.385L21.6049 12.815C21.6797 12.8791 21.769 12.924 21.865 12.9457C21.9611 12.9675 22.061 12.9655 22.1561 12.9399C22.2512 12.9142 22.3386 12.8658 22.4107 12.7987C22.4828 12.7317 22.5375 12.648 22.5699 12.555V12.555Z" stroke="#45413C" stroke-width="0.5" stroke-linecap="round" stroke-linejoin="round"/>
<path d="M7.6499 21.335H20.7199V22.035C20.7199 22.1583 20.6709 22.2766 20.5837 22.3638C20.4965 22.451 20.3782 22.5 20.2549 22.5H8.1149C7.99158 22.5 7.8733 22.451 7.7861 22.3638C7.69889 22.2766 7.6499 22.1583 7.6499 22.035V21.335Z" fill="#8CA4B8" stroke="#45413C" stroke-width="0.5" stroke-linecap="round" stroke-linejoin="round"/>
<path d="M12.085 16.43C12.085 16.5538 12.0361 16.6726 11.9491 16.7606C11.862 16.8486 11.7437 16.8987 11.62 16.9H9.99996C9.88431 16.888 9.7772 16.8336 9.69933 16.7473C9.62147 16.6609 9.57837 16.5488 9.57837 16.4325C9.57837 16.3163 9.62147 16.2041 9.69933 16.1178C9.7772 16.0314 9.88431 15.977 9.99996 15.965H11.635C11.7557 15.9689 11.8701 16.0196 11.9541 16.1064C12.0381 16.1932 12.085 16.3093 12.085 16.43Z" fill="#FFF5E3" stroke="#45413C" stroke-width="0.5" stroke-linecap="round" stroke-linejoin="round"/>
<path d="M18.855 16.43C18.855 16.5547 18.8055 16.6742 18.7173 16.7624C18.6292 16.8505 18.5096 16.9 18.385 16.9H16.755C16.6895 16.9068 16.6234 16.8998 16.5608 16.8794C16.4983 16.8589 16.4407 16.8256 16.3918 16.7816C16.3429 16.7375 16.3039 16.6837 16.2771 16.6235C16.2504 16.5634 16.2366 16.4983 16.2366 16.4325C16.2366 16.3667 16.2504 16.3016 16.2771 16.2415C16.3039 16.1814 16.3429 16.1276 16.3918 16.0835C16.4407 16.0394 16.4983 16.0061 16.5608 15.9857C16.6234 15.9653 16.6895 15.9582 16.755 15.965H18.385C18.5088 15.965 18.6276 16.0138 18.7156 16.1009C18.8036 16.188 18.8537 16.3062 18.855 16.43Z" fill="#FFF5E3" stroke="#45413C" stroke-width="0.5" stroke-linecap="round" stroke-linejoin="round"/>
<path d="M12.085 14.565C12.085 14.6884 12.036 14.8066 11.9488 14.8938C11.8616 14.981 11.7433 15.03 11.62 15.03H10.45C10.3267 15.03 10.2084 14.981 10.1212 14.8938C10.034 14.8066 9.98499 14.6884 9.98499 14.565C9.98499 14.4417 10.034 14.3234 10.1212 14.2362C10.2084 14.149 10.3267 14.1 10.45 14.1H11.62C11.6811 14.1 11.7415 14.1121 11.7979 14.1354C11.8543 14.1588 11.9056 14.1931 11.9488 14.2362C11.992 14.2794 12.0262 14.3307 12.0496 14.3871C12.073 14.4435 12.085 14.504 12.085 14.565Z" fill="#FFF5E3" stroke="#45413C" stroke-width="0.5" stroke-linecap="round" stroke-linejoin="round"/>
<path d="M18.3849 14.565C18.3849 14.6884 18.3359 14.8066 18.2487 14.8938C18.1615 14.981 18.0432 15.03 17.9199 15.03H16.7549C16.6316 15.03 16.5133 14.981 16.4261 14.8938C16.3389 14.8066 16.2899 14.6884 16.2899 14.565C16.2899 14.4417 16.3389 14.3234 16.4261 14.2362C16.5133 14.149 16.6316 14.1 16.7549 14.1H17.9199C18.0432 14.1 18.1615 14.149 18.2487 14.2362C18.3359 14.3234 18.3849 14.4417 18.3849 14.565Z" fill="#FFF5E3" stroke="#45413C" stroke-width="0.5" stroke-linecap="round" stroke-linejoin="round"/>
<path d="M12.3199 12.7C12.3186 12.8238 12.2685 12.9421 12.1805 13.0292C12.0925 13.1162 11.9737 13.165 11.8499 13.165H10.9199C10.8544 13.1718 10.7883 13.1648 10.7257 13.1444C10.6632 13.124 10.6056 13.0906 10.5567 13.0466C10.5079 13.0025 10.4688 12.9487 10.442 12.8885C10.4153 12.8284 10.4015 12.7633 10.4015 12.6975C10.4015 12.6317 10.4153 12.5667 10.442 12.5065C10.4688 12.4464 10.5079 12.3926 10.5567 12.3485C10.6056 12.3044 10.6632 12.2711 10.7257 12.2507C10.7883 12.2303 10.8544 12.2233 10.9199 12.23H11.8499C11.9746 12.23 12.0941 12.2796 12.1822 12.3677C12.2704 12.4558 12.3199 12.5754 12.3199 12.7Z" fill="#FFF5E3" stroke="#45413C" stroke-width="0.5" stroke-linecap="round" stroke-linejoin="round"/>
<path d="M15.12 12.7C15.1186 12.8238 15.0685 12.9421 14.9805 13.0292C14.8925 13.1162 14.7737 13.165 14.65 13.165H13.72C13.6545 13.1718 13.5883 13.1648 13.5258 13.1444C13.4632 13.124 13.4056 13.0906 13.3568 13.0466C13.3079 13.0025 13.2688 12.9487 13.2421 12.8885C13.2154 12.8284 13.2015 12.7633 13.2015 12.6975C13.2015 12.6317 13.2154 12.5667 13.2421 12.5065C13.2688 12.4464 13.3079 12.3926 13.3568 12.3485C13.4056 12.3044 13.4632 12.2711 13.5258 12.2507C13.5883 12.2303 13.6545 12.2233 13.72 12.23H14.65C14.7746 12.23 14.8941 12.2796 14.9823 12.3677C15.0704 12.4558 15.12 12.5754 15.12 12.7Z" fill="#FFF5E3" stroke="#45413C" stroke-width="0.5" stroke-linecap="round" stroke-linejoin="round"/>
<path d="M7.17493 1.27501C7.19803 1.26276 7.22378 1.25635 7.24993 1.25635C7.27608 1.25635 7.30183 1.26276 7.32493 1.27501C7.3471 1.28815 7.36588 1.30631 7.37977 1.32801C7.39367 1.34972 7.40228 1.37438 7.40493 1.40001L7.60993 3.62501C7.61255 3.66208 7.6033 3.69903 7.58352 3.73049C7.56375 3.76195 7.53447 3.7863 7.49993 3.80001C7.46478 3.81195 7.4267 3.81206 7.39149 3.80032C7.35628 3.78859 7.32588 3.76565 7.30493 3.73501L6.08993 1.90501C6.08029 1.88294 6.07532 1.8591 6.07532 1.83501C6.07532 1.81092 6.08029 1.78709 6.08993 1.76501C6.09715 1.74088 6.10997 1.71878 6.12735 1.70054C6.14473 1.68229 6.16617 1.66841 6.18993 1.66001L7.17493 1.27501Z" fill="white" stroke="#45413C" stroke-width="0.5" stroke-linejoin="round"/>
<path d="M11.06 1.24501C11.0852 1.25113 11.1085 1.26349 11.1278 1.28096C11.147 1.29844 11.1615 1.32046 11.17 1.34501C11.1822 1.36721 11.1887 1.39215 11.1887 1.41751C11.1887 1.44287 11.1822 1.46781 11.17 1.49001L9.99998 3.39001C9.97924 3.42014 9.94934 3.44278 9.9147 3.45457C9.88007 3.46635 9.84257 3.46665 9.80775 3.45542C9.77294 3.44419 9.74267 3.42203 9.72146 3.39223C9.70024 3.36243 9.6892 3.32658 9.68998 3.29001L9.83998 1.09001C9.84238 1.06477 9.84981 1.04026 9.86184 1.01793C9.87386 0.995605 9.89023 0.975911 9.90998 0.96001C9.93283 0.949955 9.95752 0.944763 9.98248 0.944763C10.0074 0.944763 10.0321 0.949955 10.055 0.96001L11.06 1.24501Z" fill="white" stroke="#45413C" stroke-width="0.5" stroke-linejoin="round"/>
<path d="M3.37993 3.72504C3.36236 3.74364 3.34885 3.7657 3.34025 3.78979C3.33164 3.81389 3.32813 3.83951 3.32993 3.86504C3.33238 3.89266 3.34137 3.91931 3.35615 3.94278C3.37093 3.96626 3.39107 3.98588 3.41493 4.00004L5.35493 5.10504C5.38784 5.12251 5.42547 5.12903 5.46234 5.12363C5.49922 5.11824 5.5334 5.10121 5.55993 5.07504C5.58304 5.04587 5.59563 5.00975 5.59563 4.97254C5.59563 4.93532 5.58304 4.8992 5.55993 4.87004L4.39993 3.00004C4.38674 2.97942 4.36913 2.96199 4.34838 2.94902C4.32762 2.93605 4.30424 2.92785 4.27993 2.92504C4.25549 2.92199 4.23069 2.92445 4.20733 2.93223C4.18397 2.94002 4.16265 2.95294 4.14493 2.97004L3.37993 3.72504Z" fill="white" stroke="#45413C" stroke-width="0.5" stroke-linejoin="round"/>
<path d="M1.74995 7.24999C1.74673 7.27637 1.74955 7.30314 1.75822 7.32826C1.76688 7.35338 1.78115 7.3762 1.79995 7.39499C1.81799 7.41314 1.84011 7.4267 1.86447 7.43453C1.88883 7.44236 1.91472 7.44423 1.93995 7.43999L4.15495 7.14499C4.19161 7.1399 4.2256 7.12298 4.25177 7.09681C4.27794 7.07064 4.29486 7.03665 4.29995 6.99999C4.30257 6.96292 4.29332 6.92598 4.27355 6.89451C4.25377 6.86305 4.22449 6.8387 4.18995 6.82499L2.12495 6.05499C2.10238 6.04395 2.07758 6.03821 2.05245 6.03821C2.02732 6.03821 2.00252 6.04395 1.97995 6.05499C1.95789 6.06701 1.93908 6.08421 1.92514 6.10512C1.91121 6.12602 1.90256 6.15 1.89995 6.17499L1.74995 7.24999Z" fill="white" stroke="#45413C" stroke-width="0.5" stroke-linejoin="round"/>
<path d="M17.92 12.7C17.92 12.8234 17.871 12.9416 17.7838 13.0288C17.6966 13.116 17.5783 13.165 17.455 13.165H16.5C16.4345 13.1718 16.3684 13.1648 16.3058 13.1444C16.2433 13.124 16.1857 13.0906 16.1368 13.0466C16.0879 13.0025 16.0489 12.9487 16.0221 12.8885C15.9954 12.8284 15.9816 12.7633 15.9816 12.6975C15.9816 12.6317 15.9954 12.5667 16.0221 12.5065C16.0489 12.4464 16.0879 12.3926 16.1368 12.3485C16.1857 12.3044 16.2433 12.2711 16.3058 12.2507C16.3684 12.2303 16.4345 12.2233 16.5 12.23H17.435C17.498 12.228 17.5607 12.2387 17.6195 12.2614C17.6782 12.2841 17.7318 12.3184 17.7771 12.3623C17.8223 12.4061 17.8583 12.4586 17.8828 12.5166C17.9074 12.5747 17.92 12.637 17.92 12.7Z" fill="#FFF5E3" stroke="#45413C" stroke-width="0.5" stroke-linecap="round" stroke-linejoin="round"/>
<path d="M15.3499 14.565C15.3506 14.6263 15.339 14.6871 15.3159 14.7438C15.2927 14.8005 15.2585 14.852 15.2152 14.8953C15.1719 14.9386 15.1204 14.9729 15.0636 14.996C15.0069 15.0191 14.9462 15.0307 14.8849 15.03H13.4999C13.3766 15.03 13.2583 14.981 13.1711 14.8938C13.0839 14.8066 13.0349 14.6884 13.0349 14.565C13.0349 14.4417 13.0839 14.3234 13.1711 14.2362C13.2583 14.149 13.3766 14.1 13.4999 14.1H14.8999C15.021 14.1027 15.1362 14.153 15.2205 14.24C15.3048 14.3271 15.3513 14.4439 15.3499 14.565Z" fill="#FFF5E3" stroke="#45413C" stroke-width="0.5" stroke-linecap="round" stroke-linejoin="round"/>
<path d="M15.35 16.43C15.3506 16.4915 15.3391 16.5525 15.316 16.6095C15.2929 16.6665 15.2588 16.7184 15.2155 16.7621C15.1723 16.8058 15.1208 16.8405 15.0641 16.8642C15.0073 16.8878 14.9464 16.9 14.885 16.9H13.5C13.3843 16.888 13.2772 16.8336 13.1993 16.7473C13.1215 16.6609 13.0784 16.5488 13.0784 16.4325C13.0784 16.3163 13.1215 16.2041 13.1993 16.1178C13.2772 16.0314 13.3843 15.977 13.5 15.965H14.9C15.0207 15.9689 15.1351 16.0196 15.2191 16.1064C15.3031 16.1932 15.35 16.3093 15.35 16.43Z" fill="#FFF5E3" stroke="#45413C" stroke-width="0.5" stroke-linecap="round" stroke-linejoin="round"/>
</svg>
